<svg width="18" height="18" viewBox="0 0 18 18" fill="none" xmlns="http://www.w3.org/2000/svg">
<path d="M16.4382 2.54883C16.4382 2.40321 16.3202 2.28516 16.1746 2.28516C16.029 2.28516 15.9109 2.40321 15.9109 2.54883V14.341H3.65469V0.527344H4.92331V3.65857C4.92331 3.76583 4.98831 3.86241 5.08766 3.90284C5.18698 3.9432 5.30095 3.91943 5.37584 3.84258L6.32527 2.86815L7.27473 3.84258C7.32536 3.89454 7.39384 3.92228 7.46362 3.92228C7.49702 3.92228 7.53074 3.91591 7.56291 3.90284C7.66226 3.86244 7.72726 3.76587 7.72726 3.65857V0.527344H15.9109V1.49414C15.9109 1.63976 16.029 1.75781 16.1746 1.75781C16.3202 1.75781 16.4383 1.63976 16.4383 1.49414V0.263672C16.4383 0.118055 16.3202 0 16.1746 0H3.39105C2.90214 0 2.44261 0.19023 2.0972 0.535676C1.75179 0.881121 1.56152 1.34061 1.56152 1.82953V16.1705C1.56152 16.1709 1.56159 16.1713 1.56159 16.1718C1.56226 17.18 2.38267 18 3.39102 18H16.1747C16.3203 18 16.4384 17.8819 16.4384 17.7363L16.4382 2.54883ZM7.19988 0.527344V3.01015L6.51409 2.30632C6.46445 2.25538 6.39635 2.22666 6.32523 2.22666C6.25411 2.22666 6.18601 2.25538 6.13637 2.30632L5.45061 3.01015V0.527344H7.19988ZM2.47007 0.908543C2.6526 0.726047 2.87992 0.604582 3.12735 0.554027V14.3603C2.72372 14.4188 2.36245 14.6095 2.08887 14.8871V1.82953C2.08887 1.48145 2.22425 1.15439 2.47007 0.908543ZM3.39102 17.4727C2.67302 17.4727 2.0889 16.8885 2.0889 16.1705C2.0889 15.4525 2.67302 14.8684 3.39102 14.8684H15.911V15.2198H5.2923C5.14669 15.2198 5.02863 15.3379 5.02863 15.4835C5.02863 15.6291 5.14669 15.7472 5.2923 15.7472H15.9109V16.5938H3.39105C3.15765 16.5938 2.96777 16.4039 2.96777 16.1705C2.96777 15.9371 3.15765 15.7472 3.39105 15.7472H4.23762C4.38323 15.7472 4.50129 15.6291 4.50129 15.4835C4.50129 15.3379 4.38323 15.2198 4.23762 15.2198H3.39105C2.86688 15.2198 2.44043 15.6463 2.44043 16.1705C2.44043 16.6946 2.86688 17.1211 3.39105 17.1211H15.911V17.4727H3.39102Z" fill="#0AB99D"/>
<path d="M6.35686 4.37646C5.60384 4.37646 4.99121 4.9891 4.99121 5.74211V9.10463C4.99121 9.85764 5.60384 10.4703 6.35686 10.4703H12.427C13.1801 10.4703 13.7927 9.85764 13.7927 9.10463V5.74211C13.7927 4.9891 13.1801 4.37646 12.427 4.37646H6.35686ZM13.2653 5.74211V9.10463C13.2653 9.56686 12.8893 9.94293 12.427 9.94293H6.35686C5.89462 9.94293 5.51855 9.56686 5.51855 9.10463V5.74211C5.51855 5.27988 5.89462 4.90381 6.35686 4.90381H12.427C12.8893 4.90381 13.2653 5.27988 13.2653 5.74211Z" fill="#0AB99D"/>
<path d="M11.8682 6.46094H6.91504C6.76942 6.46094 6.65137 6.57899 6.65137 6.72461C6.65137 6.87023 6.76942 6.98828 6.91504 6.98828H11.8682C12.0138 6.98828 12.1318 6.87023 12.1318 6.72461C12.1318 6.57899 12.0138 6.46094 11.8682 6.46094Z" fill="#0AB99D"/>
<path d="M11.8682 7.8584H6.91504C6.76942 7.8584 6.65137 7.97645 6.65137 8.12207C6.65137 8.26769 6.76942 8.38574 6.91504 8.38574H11.8682C12.0138 8.38574 12.1318 8.26769 12.1318 8.12207C12.1318 7.97645 12.0138 7.8584 11.8682 7.8584Z" fill="#0AB99D"/>
</svg>
